<mxfile host="app.diagrams.net" modified="2023-01-17T09:37:51.757Z" agent="5.0 (Macintosh)" version="20.8.5" etag="HmjLcaEDauWlztfAUg9G" type="github">
  <diagram id="04pW3uwWwI-h8GlfCnRn">
    <mxGraphModel dx="1434" dy="710" grid="1" gridSize="10" guides="1" tooltips="1" connect="1" arrows="1" fold="1" page="1" pageScale="1" pageWidth="827" pageHeight="1169" math="0" shadow="0">
      <root>
        <mxCell id="0" />
        <mxCell id="1" parent="0" />
        <mxCell id="WQGgX3OESamlVy0MuJky-3" value="" style="edgeStyle=orthogonalEdgeStyle;rounded=0;orthogonalLoop=1;jettySize=auto;html=1;" edge="1" parent="1" source="WQGgX3OESamlVy0MuJky-1" target="WQGgX3OESamlVy0MuJky-2">
          <mxGeometry relative="1" as="geometry" />
        </mxCell>
        <mxCell id="WQGgX3OESamlVy0MuJky-1" value="Start" style="rounded=0;whiteSpace=wrap;html=1;" vertex="1" parent="1">
          <mxGeometry x="360" y="130" width="120" height="60" as="geometry" />
        </mxCell>
        <mxCell id="WQGgX3OESamlVy0MuJky-2" value="End" style="rounded=0;whiteSpace=wrap;html=1;" vertex="1" parent="1">
          <mxGeometry x="360" y="270" width="120" height="60" as="geometry" />
        </mxCell>
      </root>
    </mxGraphModel>
  </diagram>
</mxfile>
